# xmcd CD database file
#
# Track frame offsets:
#	150
#	15005
#	27310
#	47257
#	60390
#	61942
#	68080
#	94862
#	107827
#	122122
#	132155
#	160697
#
# Disc length: 2435 seconds
#
# Revision: 0
# Processed by: cddbd v1.5PL3 Copyright (c) Steve Scherf et al.
# Submitted via: CDex 1.51
#
DISCID=8c09810c
DTITLE=ジャックス - ジャックスの奇跡
DYEAR=1969
DGENRE=Rock
TTITLE0=ジョーのロック
TTITLE1=この青い海に
TTITLE2=堕天使ロック
TTITLE3=運命の囚人
TTITLE4=To Love You
TTITLE5=Dm4-50
TTITLE6=花が咲いて
TTITLE7=君をさらって
TTITLE8=ロール・オーヴァー・ゆらの助
TTITLE9=ハウ・トゥ・ラヴ
TTITLE10=敵は遠くに
TTITLE11=Data Track
EXTD=YEAR: 1969
EXTT0=
EXTT1=
EXTT2=
EXTT3=
EXTT4=
EXTT5=
EXTT6=
EXTT7=
EXTT8=
EXTT9=
EXTT10=
EXTT11=
PLAYORDER=
